<?xml version="1.0" encoding="utf-8"?>
<svg xmlns="http://www.w3.org/2000/svg" viewBox="0 0 1000 1000">
  <path d="M -381.81 -183.72 C 56.259 -183.72 494.323 -183.72 945.666 -183.72 C 945.666 151.561 945.666 486.843 945.666 832.284 C 507.6 832.284 69.532 832.284 -381.81 832.284 C -381.81 497.002 -381.81 161.721 -381.81 -183.72 Z" fill="#FEFEFE" style="stroke-width: 1; transform-box: fill-box; transform-origin: 50% 50%;" transform="matrix(0.999978, 0.006567, -0.006567, 0.999978, 0, 0)"/>
  <path d="M 22.959 4.727 C 29.822 8.907 36.333 13.397 42.78 18.187 C 48.071 22.107 53.436 25.897 58.834 29.667 C 59.684 30.257 60.534 30.847 61.41 31.457 C 63.11 32.647 64.811 33.837 66.512 35.017 C 76.014 41.647 85.46 48.357 94.834 55.167 C 101.759 60.187 108.783 65.047 115.862 69.858 C 121.209 73.5 126.48 77.232 131.709 81.039 C 139.561 86.755 147.514 92.317 155.495 97.851 C 161.229 101.827 166.951 105.821 172.647 109.852 C 181.213 115.914 189.811 121.931 198.411 127.945 C 202.595 130.871 206.777 133.799 210.959 136.727 C 211.786 137.306 212.613 137.885 213.465 138.481 C 217.596 141.372 221.725 144.263 225.854 147.157 C 234.711 153.363 243.579 159.554 252.459 165.727 C 256.293 168.393 260.126 171.06 263.959 173.727 C 264.842 174.341 265.724 174.955 266.634 175.588 C 277.859 183.404 289.062 191.252 300.085 199.351 C 301.703 200.538 303.327 201.718 304.952 202.895 C 314.277 209.94 320.98 219.367 328.001 228.591 C 331.917 233.722 335.99 238.719 340.074 243.717 C 343.566 247.994 347.003 252.309 350.397 256.664 C 356.248 264.164 362.311 271.485 368.376 278.811 C 371.922 283.101 375.438 287.417 378.959 291.727 C 379.649 292.569 380.339 293.411 381.049 294.278 C 384.492 298.479 387.928 302.685 391.346 306.907 C 391.933 307.631 392.52 308.355 393.124 309.101 C 394.29 310.54 395.455 311.98 396.619 313.421 C 397.153 314.08 397.687 314.739 398.237 315.418 C 398.714 316.008 399.19 316.598 399.682 317.206 C 401.028 318.854 401.028 318.854 402.959 320.727 C 401.239 315.774 398.546 311.496 395.834 307.039 C 395.047 305.736 395.047 305.736 394.244 304.407 C 387.913 293.956 381.494 283.559 375.077 273.162 C 372.887 269.611 370.704 266.056 368.522 262.5 C 367.435 260.73 366.348 258.96 365.261 257.19 C 364.236 255.52 363.211 253.849 362.187 252.178 C 359.191 247.303 356.186 242.453 352.959 237.727 C 354.63 233.894 357.121 230.783 359.709 227.539 C 360.189 226.934 360.668 226.328 361.163 225.704 C 365.62 220.098 370.183 214.581 374.75 209.064 C 380.274 202.378 385.638 195.576 390.959 188.727 C 391.697 187.781 392.434 186.835 393.194 185.86 C 394.785 183.817 396.373 181.773 397.959 179.727 C 393.877 175.32 389.348 172.043 384.397 168.664 C 377.049 163.638 372.03 159.419 367.709 151.477 C 367.298 150.73 366.887 149.983 366.464 149.213 C 361.918 140.837 357.661 132.311 353.397 123.789 C 352.855 122.708 352.855 122.708 352.303 121.605 C 351.267 119.534 350.236 117.461 349.205 115.387 C 348.892 114.76 348.579 114.132 348.257 113.486 C 346.987 110.919 345.866 108.448 344.959 105.727 C 348.628 107.132 352.093 108.757 355.58 110.563 C 357.213 111.408 357.213 111.408 358.879 112.27 C 360.04 112.875 361.201 113.479 362.397 114.102 C 362.997 114.414 363.598 114.726 364.216 115.047 C 373.075 119.649 381.863 124.369 390.608 129.185 C 397.832 133.15 405.134 136.953 412.459 140.727 C 421.502 145.388 430.482 150.14 439.394 155.045 C 445.971 158.659 452.587 162.194 459.218 165.706 C 469.16 170.974 479.104 176.246 488.897 181.789 C 489.629 182.194 490.36 182.598 491.114 183.014 C 499.631 187.915 505.116 194.916 510.709 202.852 C 511.273 203.637 511.836 204.422 512.416 205.231 C 516.782 211.35 516.782 211.35 518.151 214.251 C 520.687 217.724 523.921 218.924 527.78 220.52 C 528.574 220.864 529.368 221.207 530.187 221.561 C 532.813 222.693 535.449 223.804 538.084 224.914 C 539.929 225.705 541.773 226.498 543.616 227.292 C 547.46 228.946 551.307 230.594 555.156 232.237 C 563.398 235.763 571.595 239.394 579.795 243.016 C 592.7 248.711 605.63 254.335 618.636 259.794 C 627.313 263.439 635.952 267.167 644.584 270.914 C 645.26 271.208 645.935 271.501 646.63 271.803 C 650.407 273.443 654.184 275.084 657.959 276.727 C 654.921 277.66 652.692 277.733 649.56 277.249 C 648.685 277.117 647.809 276.986 646.906 276.85 C 645.952 276.699 644.997 276.547 644.014 276.391 C 642.495 276.159 642.495 276.159 640.945 275.923 C 637.573 275.406 634.204 274.879 630.834 274.352 C 628.464 273.988 626.093 273.624 623.722 273.261 C 612.326 271.512 600.936 269.726 589.548 267.926 C 555.95 262.54 555.95 262.54 522.209 258.164 C 521.139 258.044 521.139 258.044 520.047 257.921 C 509.372 255.941 509.372 255.941 499.538 258.414 C 498.769 259.178 498.001 259.941 497.209 260.727 C 494.004 263.79 490.817 266.733 487.334 269.477 C 482.006 273.677 476.747 277.957 471.492 282.248 C 470.834 282.783 470.176 283.319 469.498 283.872 C 468.913 284.35 468.327 284.828 467.724 285.32 C 465.959 286.727 465.959 286.727 463.912 287.974 C 461.196 290.412 460.321 293.261 459.182 296.629 C 458.935 297.326 458.687 298.023 458.432 298.742 C 457.617 301.045 456.82 303.355 456.022 305.664 C 455.452 307.282 454.881 308.898 454.308 310.515 C 453.115 313.886 451.928 317.259 450.747 320.634 C 446.16 333.724 441.459 346.775 436.67 359.794 C 435.999 361.619 435.331 363.445 434.663 365.272 C 427.026 385.912 427.026 385.912 417.959 393.727 C 417.109 394.503 417.109 394.503 416.242 395.295 C 411.211 399.836 405.897 403.707 400.272 407.477 C 399.335 408.11 398.398 408.742 397.433 409.394 C 394.281 411.515 391.122 413.623 387.959 415.727 C 387.384 416.11 386.808 416.494 386.215 416.889 C 373.501 425.353 360.753 433.777 347.709 441.727 C 346.943 442.201 346.176 442.675 345.387 443.163 C 333.465 450.306 320.461 451.864 306.784 452.579 C 305.656 452.642 304.528 452.706 303.367 452.772 C 300.996 452.904 298.625 453.034 296.255 453.16 C 292.667 453.351 289.08 453.554 285.493 453.758 C 274.309 454.381 263.164 454.982 251.959 454.727 C 251.807 455.325 251.655 455.924 251.499 456.54 C 248.757 466.975 245.243 477.15 241.786 487.364 C 241.241 488.976 240.696 490.588 240.151 492.2 C 239.88 492.999 239.609 493.799 239.33 494.622 C 237.806 499.14 236.337 503.67 234.935 508.227 C 234.312 510.243 233.676 512.254 233.034 514.265 C 232.257 516.71 231.506 519.164 230.785 521.627 C 228.083 529.951 224.563 533.539 216.959 537.727 C 215.722 538.484 214.485 539.242 213.248 540 C 212.029 540.705 210.808 541.405 209.584 542.102 C 203.957 545.351 198.382 548.677 192.846 552.079 C 192.224 552.46 191.602 552.841 190.961 553.234 C 187.181 555.552 187.181 555.552 183.409 557.881 C 181.633 558.981 179.853 560.073 178.073 561.164 C 176.523 562.122 176.523 562.122 174.941 563.098 C 171.997 564.707 169.169 565.774 165.959 566.727 C 170.778 556.967 175.744 547.309 180.914 537.731 C 192.369 516.462 202.901 494.751 212.959 472.789 C 213.375 471.884 213.791 470.978 214.219 470.045 C 214.771 468.822 214.771 468.822 215.334 467.575 C 215.81 466.523 215.81 466.523 216.295 465.45 C 217.079 463.724 217.079 463.724 216.959 461.727 C 207.441 475.596 198.007 489.521 188.611 503.474 C 181.497 514.034 174.347 524.567 167.117 535.049 C 164.963 538.172 162.817 541.3 160.678 544.433 C 159.506 546.144 158.329 547.852 157.147 549.557 C 153.793 554.429 150.554 559.34 147.492 564.4 C 137.913 580.219 130.169 591.806 112.691 599.47 C 107.788 601.727 103.186 604.519 98.522 607.227 C 88.462 612.928 78.336 618.505 68.16 623.997 C 65.807 625.269 63.456 626.545 61.106 627.825 C 57.662 629.7 54.214 631.568 50.762 633.429 C 49.398 634.167 48.034 634.908 46.673 635.651 C 44.767 636.691 42.856 637.72 40.944 638.747 C 39.284 639.645 39.284 639.645 37.591 640.562 C 36.723 640.947 35.854 641.331 34.959 641.727 C 34.299 641.397 33.639 641.067 32.959 640.727 C 33.577 640 34.194 639.273 34.83 638.524 C 39.894 632.512 44.751 626.42 49.432 620.102 C 52.444 616.056 55.546 612.08 58.647 608.102 C 59.244 607.335 59.841 606.569 60.457 605.779 C 63.449 601.941 66.445 598.106 69.444 594.274 C 76.182 585.651 82.81 576.956 89.356 568.186 C 93.478 562.674 97.659 557.213 101.897 551.789 C 113.016 537.56 123.906 523.158 134.726 508.7 C 138.99 503.006 143.294 497.346 147.647 491.719 C 149.217 489.688 150.779 487.652 152.334 485.61 C 156.835 479.705 161.434 473.902 166.147 468.164 C 172.349 460.595 178.219 452.799 184.061 444.95 C 188.048 439.594 192.093 434.283 196.147 428.977 C 201.255 422.287 206.335 415.578 211.373 408.835 C 215.615 403.166 219.911 397.54 224.209 391.914 C 229.554 384.918 234.853 377.9 239.959 370.727 C 237.171 366.08 233.893 362.554 230.018 358.778 C 227.543 356.312 225.283 353.707 223.006 351.059 C 220.378 348.064 217.67 345.147 214.959 342.227 C 211.127 338.094 207.345 333.933 203.655 329.672 C 199.341 324.723 194.924 319.862 190.479 315.032 C 185.61 309.732 180.95 304.332 176.432 298.731 C 173.551 295.23 170.573 291.824 167.584 288.414 C 162.715 282.851 158.054 277.166 153.561 271.294 C 151.2 268.223 148.77 265.395 145.959 262.727 C 146.289 262.067 146.619 261.407 146.959 260.727 C 147.465 261.022 147.97 261.318 148.49 261.622 C 160.046 268.357 171.724 274.768 183.619 280.884 C 190.15 284.247 196.603 287.718 203.022 291.289 C 220.012 300.703 237.557 309.109 254.959 317.727 C 244.703 309.491 233.82 302.133 222.959 294.727 C 222.144 294.17 221.329 293.614 220.489 293.04 C 208.727 285.01 196.938 277.02 185.129 269.058 C 180.46 265.909 175.797 262.751 171.148 259.572 C 162.944 253.978 154.77 248.493 146.12 243.61 C 125.614 231.841 117.569 218.275 108.748 196.618 C 106.902 192.192 104.754 187.907 102.647 183.602 C 101.81 181.838 100.975 180.074 100.139 178.309 C 92.646 162.67 84.744 147.222 76.959 131.727 C 80.654 131.727 81.672 132.682 84.651 134.805 C 85.598 135.473 86.544 136.141 87.52 136.829 C 89.006 137.892 89.006 137.892 90.522 138.977 C 98.191 144.425 105.927 149.738 113.764 154.94 C 119.492 158.744 125.199 162.579 130.893 166.434 C 132.614 167.598 134.334 168.762 136.055 169.926 C 136.926 170.516 137.798 171.105 138.696 171.713 C 158.673 185.222 178.759 198.554 198.959 211.727 C 200.001 212.407 201.043 213.087 202.117 213.788 C 207.019 216.984 211.926 220.173 216.839 223.353 C 218.983 224.743 221.126 226.135 223.268 227.528 C 230.948 232.517 238.657 237.457 246.397 242.352 C 247.221 242.874 248.044 243.395 248.893 243.932 C 249.656 244.414 250.419 244.895 251.205 245.391 C 251.883 245.819 252.56 246.246 253.258 246.686 C 254.98 247.773 254.98 247.773 256.959 248.727 C 256.726 245.462 255.843 244.622 253.362 242.387 C 252.214 241.512 251.058 240.647 249.897 239.789 C 248.615 238.814 247.333 237.838 246.053 236.86 C 245.382 236.35 244.71 235.84 244.018 235.314 C 240.586 232.669 237.246 229.913 233.897 227.164 C 229.161 223.294 224.39 219.492 219.522 215.789 C 213.67 211.328 207.998 206.673 202.336 201.976 C 197.846 198.259 193.311 194.616 188.709 191.039 C 184.203 187.534 179.797 183.939 175.459 180.227 C 170.509 175.993 165.46 171.914 160.317 167.916 C 157.333 165.595 154.368 163.257 151.444 160.86 C 142.094 153.213 132.343 146.27 122.402 139.414 C 105.517 127.75 88.692 115.92 72.959 102.727 C 71.769 101.891 71.769 101.891 70.555 101.038 C 67.522 98.338 65.938 95.48 64.209 91.883 C 63.707 90.874 63.707 90.874 63.195 89.845 C 62.104 87.645 61.031 85.436 59.959 83.227 C 59.2 81.683 58.44 80.14 57.679 78.597 C 52.547 68.152 47.583 57.627 42.73 47.057 C 38.082 36.927 33.246 26.897 28.363 16.877 C 27.802 15.717 27.241 14.567 26.663 13.377 C 26.164 12.357 25.665 11.337 25.152 10.287 C 23.959 7.727 23.959 7.727 22.959 4.727 Z" fill="#0088FB" style="stroke-width: 1;"/>
  <path d="M 472.209 209.352 C 476.033 211.512 478.115 213.653 479.959 217.727 C 480.773 222.446 480.418 225.774 478.334 230.102 C 475.172 233.597 472.529 235.395 467.784 236.008 C 461.564 236.259 457.42 234.855 452.647 230.727 C 449.62 227.14 449.616 223.505 449.682 219.012 C 450.122 215.39 451.541 213.399 453.959 210.727 C 459.877 206.692 465.816 206.512 472.209 209.352 Z" fill="#FBFDFE" style="stroke-width: 1;"/>
  <path d="M 213.959 405.727 C 214.289 406.717 214.619 407.707 214.959 408.727 C 213.309 410.377 211.659 412.027 209.959 413.727 C 209.299 413.397 208.639 413.067 207.959 412.727 C 209.939 410.417 211.919 408.107 213.959 405.727 Z" fill="#0D7FFC" style="stroke-width: 1;"/>
</svg>